<svg width="314" height="31" viewBox="0 0 314 31" fill="none" xmlns="http://www.w3.org/2000/svg">
<path d="M143.544 6.136H141.84L135 26.776H136.704L143.544 6.136ZM154.451 25V7.912H152.723V14.56C151.739 13.336 150.707 13.048 149.387 13.048C148.163 13.048 147.131 13.456 146.507 14.08C145.331 15.256 145.067 17.2 145.067 19.096C145.067 20.992 145.331 22.912 146.507 24.112C147.131 24.736 148.163 25.144 149.387 25.144C150.731 25.144 151.763 24.832 152.747 23.584V25H154.451ZM152.723 19.096C152.723 21.4 152.339 23.608 149.771 23.608C147.179 23.608 146.795 21.4 146.795 19.096C146.795 16.792 147.179 14.584 149.771 14.584C152.339 14.584 152.723 16.792 152.723 19.096ZM167.793 19.096C167.793 17.272 167.553 15.592 166.353 14.392C165.537 13.552 164.409 13.048 162.969 13.048C161.529 13.048 160.401 13.552 159.585 14.392C158.385 15.592 158.145 17.272 158.145 19.096C158.145 20.92 158.385 22.576 159.585 23.8C160.401 24.64 161.529 25.144 162.969 25.144C164.409 25.144 165.537 24.64 166.353 23.8C167.553 22.576 167.793 20.92 167.793 19.096ZM166.065 19.096C166.065 20.416 165.993 21.856 165.129 22.744C164.553 23.32 163.809 23.608 162.969 23.608C162.129 23.608 161.409 23.32 160.833 22.744C159.945 21.856 159.873 20.416 159.873 19.096C159.873 17.752 159.969 16.312 160.833 15.448C161.409 14.872 162.129 14.584 162.969 14.584C163.809 14.584 164.553 14.872 165.129 15.448C165.993 16.312 166.065 17.752 166.065 19.096ZM179.968 23.392L178.792 22.264C177.904 23.248 177.208 23.608 176.08 23.608C174.928 23.608 173.968 23.152 173.344 22.264C172.792 21.496 172.576 20.584 172.576 19.096C172.576 17.608 172.792 16.696 173.344 15.928C173.968 15.04 174.928 14.584 176.08 14.584C177.208 14.584 177.904 14.92 178.792 15.904L179.968 14.8C178.744 13.48 177.712 13.048 176.08 13.048C173.104 13.048 170.848 15.064 170.848 19.096C170.848 23.128 173.104 25.144 176.08 25.144C177.712 25.144 178.744 24.712 179.968 23.392ZM191.43 21.544C191.43 19.312 190.014 18.544 187.95 18.352L186.102 18.184C184.638 18.04 183.99 17.512 183.99 16.456C183.99 15.232 184.902 14.512 186.63 14.512C187.854 14.512 188.934 14.8 189.774 15.448L190.902 14.32C189.822 13.456 188.358 13.048 186.654 13.048C184.11 13.048 182.31 14.344 182.31 16.504C182.31 18.472 183.534 19.48 185.838 19.672L187.782 19.84C189.174 19.96 189.75 20.512 189.75 21.568C189.75 22.96 188.574 23.656 186.606 23.656C185.142 23.656 183.846 23.248 182.934 22.288L181.782 23.44C183.054 24.688 184.614 25.144 186.63 25.144C189.51 25.144 191.43 23.824 191.43 21.544Z" fill="white"/>
<path d="M73.1303 25.7447V24.5033C72.1643 25.4682 71.2543 25.8823 69.6 25.8823C67.9725 25.8823 66.7872 25.4682 65.932 24.6142C65.1585 23.8138 64.7455 22.6565 64.7455 21.3872C64.7455 19.0982 66.317 17.2233 69.6537 17.2233H73.0452V16.507C73.0452 14.9355 72.2728 14.246 70.37 14.246C68.991 14.246 68.3575 14.5773 67.612 15.4325L65.323 13.1983C66.7288 11.6537 68.1078 11.2127 70.5077 11.2127C74.5338 11.2127 76.6292 12.9218 76.6292 16.2865V25.7458H73.1303V25.7447ZM73.0475 19.678H70.2067C68.9105 19.678 68.1942 20.2847 68.1942 21.3043C68.1942 22.2972 68.8557 22.9587 70.2615 22.9587C71.2543 22.9587 71.889 22.8758 72.5237 22.2692C72.9098 21.911 73.0475 21.3323 73.0475 20.4492V19.678Z" fill="white"/>
<path d="M83.8555 25.7447C80.905 25.7447 79.6637 23.6762 79.6637 21.6357V6.11084H83.2488V21.4152C83.2488 22.2703 83.6082 22.7113 84.5182 22.7113H85.8972V25.7447H83.8555Z" fill="white"/>
<path d="M92.5693 25.7447C89.6468 25.7447 88.4055 23.6762 88.4055 21.6357V14.5213H86.8888V11.7913H88.4055V7.54468H91.9907V11.7913H94.527V14.5213H91.9907V21.4152C91.9907 22.2423 92.3768 22.7113 93.232 22.7113H94.5282V25.7447H92.5693Z" fill="white"/>
<path d="M97.0353 8.92367V6H100.703V8.92367H97.0353ZM97.0913 25.7447V11.3772H100.677V25.7447H97.0913Z" fill="white"/>
<path d="M112.34 25.7447V17.0577C112.34 15.1 111.098 14.4373 109.969 14.4373C108.839 14.4373 107.569 15.0988 107.569 17.0577V25.7435H103.984V11.3772H107.486V12.7002C108.423 11.7073 109.747 11.2115 111.072 11.2115C112.505 11.2115 113.664 11.6805 114.463 12.4797C115.62 13.637 115.925 14.9892 115.925 16.5607V25.7435H112.34V25.7447Z" fill="white"/>
<path d="M127.449 25.7447V17.0577C127.449 15.1 126.208 14.4373 125.079 14.4373C123.948 14.4373 122.679 15.0988 122.679 17.0577V25.7435H119.094V11.3772H122.596V12.7002C123.533 11.7073 124.857 11.2115 126.181 11.2115C127.615 11.2115 128.773 11.6805 129.573 12.4797C130.73 13.637 131.034 14.9892 131.034 16.5607V25.7435H127.449V25.7447Z" fill="white"/>
<path d="M52 6H40V10H52V6Z" fill="white"/>
<path d="M52 14H40V18H52V14Z" fill="white"/>
<path d="M52 22H40V26H52V22Z" fill="white"/>
<path d="M4 6H0V10H4V6Z" fill="white"/>
<path d="M4 14H0V18H4V14Z" fill="white"/>
<path d="M4 22H0V26H4V22Z" fill="white"/>
<path d="M12 6H8V10H12V6Z" fill="white"/>
<path d="M12 14H8V18H12V14Z" fill="white"/>
<path d="M12 22H8V26H12V22Z" fill="white"/>
<path d="M16 6H36V18H32V10H16V6Z" fill="white"/>
<path d="M28 14H24V18H28V14Z" fill="white"/>
<path d="M16 14H20V22H36V26H16V14Z" fill="white"/>
</svg>
