<svg width="298" height="298" viewBox="0 0 298 298" fill="none" xmlns="http://www.w3.org/2000/svg">
<g clip-path="url(#clip0)">
<path d="M174.383 169.181H104.743C104.248 169.181 103.815 168.748 103.815 168.253V44.6356C103.815 44.1403 104.248 43.707 104.743 43.707H174.383C174.878 43.707 175.311 44.1403 175.311 44.6356V108.456C175.311 108.951 174.878 109.385 174.383 109.385C173.887 109.385 173.454 108.951 173.454 108.456V45.5641H105.672V167.324H173.454V121.765C173.454 121.27 173.887 120.836 174.383 120.836C174.878 120.836 175.311 121.27 175.311 121.765V168.253C175.311 168.748 174.94 169.181 174.383 169.181Z" fill="#1EAEF7"/>
<path d="M278.13 150.24H188.62C188.125 150.24 187.691 149.806 187.691 149.311C187.691 148.816 188.125 148.383 188.62 148.383H277.201V2.35705H189.548V115.203C189.548 115.699 189.115 116.132 188.62 116.132H119.662C119.166 116.132 118.733 115.699 118.733 115.203C118.733 114.708 119.166 114.275 119.662 114.275H187.691V1.42852C187.691 0.933311 188.125 0.5 188.62 0.5H278.13C278.625 0.5 279.058 0.933311 279.058 1.42852V149.311C279.058 149.868 278.687 150.24 278.13 150.24Z" fill="#1EAEF7"/>
<path d="M277.511 221.55H216.661C216.166 221.55 215.733 221.117 215.733 220.622V206.508C215.733 206.013 216.166 205.58 216.661 205.58H296.081V169.182H237.213C236.718 169.182 236.284 168.749 236.284 168.253V107.342C230.465 107.218 225.204 106.723 221.923 104.433C219.385 102.7 217.714 99.8521 217.28 96.7571C216.909 93.9715 217.652 91.3097 219.385 89.3289C221.242 87.1004 225.266 85.6767 229.289 87.1623C232.508 88.3384 237.894 92.3001 238.141 105.485C238.575 105.485 239.008 105.485 239.379 105.485H264.511V76.7629H201.372C200.877 76.7629 200.443 76.3296 200.443 75.8343V62.1541C200.443 61.6589 200.877 61.2256 201.372 61.2256H265.502C265.997 61.2256 266.43 61.6589 266.43 62.1541C266.43 62.6493 265.997 63.0826 265.502 63.0826H202.3V74.9058H265.502C265.997 74.9058 266.43 75.3391 266.43 75.8343V106.414C266.43 106.909 265.997 107.342 265.502 107.342H239.441C239.008 107.342 238.575 107.342 238.203 107.342V167.325H297.071C297.567 167.325 298 167.758 298 168.253V206.57C298 207.066 297.567 207.499 297.071 207.499H217.652V219.755H277.573C278.068 219.755 278.501 220.189 278.501 220.684C278.501 221.179 278.068 221.55 277.511 221.55ZM226.009 88.4003C223.842 88.4003 221.861 89.3289 220.871 90.505C219.509 92.1144 218.952 94.2191 219.199 96.5095C219.509 99.1093 220.933 101.4 223.037 102.885C225.885 104.866 230.961 105.361 236.346 105.423C236.222 100.657 235.418 96.7571 233.932 93.8477C232.632 91.3716 230.837 89.6384 228.732 88.8956C227.804 88.5861 226.875 88.4003 226.009 88.4003Z" fill="#1EAEF7"/>
<path d="M297.072 242.844H196.853C196.358 242.844 195.924 242.411 195.924 241.916V168.253C195.924 167.758 196.358 167.324 196.853 167.324H229.104C229.599 167.324 230.032 167.758 230.032 168.253C230.032 168.748 229.599 169.181 229.104 169.181H197.781V240.987H296.143V214.184C296.143 213.688 296.576 213.255 297.072 213.255C297.567 213.255 298 213.688 298 214.184V241.916C298 242.411 297.567 242.844 297.072 242.844Z" fill="#1EAEF7"/>
<path d="M265.564 49.2779H201.372C200.877 49.2779 200.443 48.8446 200.443 48.3494C200.443 47.8542 200.877 47.4209 201.372 47.4209H265.502C265.997 47.4209 266.43 47.8542 266.43 48.3494C266.43 48.8446 266.059 49.2779 265.564 49.2779Z" fill="#1EAEF7"/>
<path d="M159.093 73.0485H119.662C119.166 73.0485 118.733 72.6151 118.733 72.1199C118.733 71.6247 119.166 71.1914 119.662 71.1914H159.093C159.588 71.1914 160.021 71.6247 160.021 72.1199C160.021 72.6151 159.588 73.0485 159.093 73.0485Z" fill="#1EAEF7"/>
<path d="M159.093 86.9762H119.662C119.166 86.9762 118.733 86.5429 118.733 86.0477C118.733 85.5525 119.166 85.1191 119.662 85.1191H159.093C159.588 85.1191 160.021 85.5525 160.021 86.0477C160.021 86.5429 159.588 86.9762 159.093 86.9762Z" fill="#1EAEF7"/>
<path d="M159.093 101.523H119.662C119.166 101.523 118.733 101.09 118.733 100.595C118.733 100.099 119.166 99.666 119.662 99.666H159.093C159.588 99.666 160.021 100.099 160.021 100.595C160.021 101.09 159.588 101.523 159.093 101.523Z" fill="#1EAEF7"/>
<path d="M84.9351 118.794C84.9351 118.794 89.6396 99.2949 94.5298 93.9714C97.7487 90.443 100.163 84.5004 102.577 80.353C103.815 78.2484 104.248 75.5247 106.477 75.958C113.162 77.2579 104.125 95.3332 104.125 95.3332L103.877 126.222L94.0965 133.526L84.9351 118.794Z" fill="#0062BA"/>
<path d="M24.7668 148.877C24.7668 148.877 5.63918 183.728 1.73938 193.88C-2.22231 204.032 2.2965 256.4 17.2148 277.942C24.8287 288.899 13.5626 298.493 27.9237 298.493C42.2849 298.493 111.429 298.493 111.429 298.493C111.429 298.493 115.143 295.46 117.619 284.689C119.352 277.076 117.619 261.91 117.619 261.91C117.619 261.91 156.988 221.117 158.66 212.698C160.331 204.279 144.856 178.962 132.537 186.576C120.219 194.189 100.41 204.836 100.41 204.836L98.9866 186.823C98.9866 186.823 116.876 180.138 117.743 169.119C117.743 169.119 106.229 168.995 105.301 168.995C104.372 168.995 103.815 168.315 103.815 167.2C103.815 166.086 103.877 126.16 103.877 126.16C103.877 126.16 93.0441 129.131 84.935 118.731L79.5495 138.416L43.3372 133.093L24.7668 148.877Z" fill="#E23B53"/>
<path d="M20.1241 164.601C20.1241 164.601 26.9333 177.105 41.7897 177.724C56.646 178.343 56.2746 157.111 56.2746 157.111C56.2746 157.111 65.9313 151.23 68.0978 144.978C70.2644 138.726 70.3882 130.245 72.1833 127.893C73.9784 125.479 78.1877 122.074 78.3734 118.794C78.6211 115.513 71.8119 115.946 66.736 106.785C61.66 97.6233 54.9128 89.2666 54.9128 89.2666L24.4572 102.823L16.3481 145.04C16.41 144.978 20.1241 156.492 20.1241 164.601Z" fill="#0062BA"/>
<path d="M18.6386 153.149C18.6386 153.149 24.2716 157.173 30.3379 160.33C36.4043 163.487 45.38 156.863 39.4994 144.978C33.6187 133.093 33.2473 124.675 39.3137 124.117C45.38 123.56 44.3277 131.855 49.5274 129.812C53.0558 128.451 52.4987 123.251 52.4987 115.946C52.4987 108.642 64.4456 102.452 64.0742 93.1048C63.7028 83.7577 52.9939 75.7724 43.1515 78.7436C43.1515 78.7436 27.9238 73.2344 15.1102 88.2765C2.29655 103.319 0.00619787 115.142 0.377607 125.17C0.996623 142.564 15.1721 150.859 18.6386 153.149Z" fill="#1EAEF7"/>
<path d="M143.927 189.3C143.927 189.3 147.146 186.391 150.365 180.324C155.007 171.782 158.041 153.769 164.478 153.769C170.916 153.769 165.036 168.996 165.036 168.996C165.036 168.996 172.711 168.996 173.578 168.996C174.445 168.996 175.311 168.377 175.311 167.325C175.311 166.273 175.311 164.787 175.311 163.178C175.311 155.564 175.311 146.093 175.311 146.093C175.311 146.093 179.087 146.65 180.82 153.583C182.554 160.578 182.987 165.901 184.782 172.525C186.763 180.015 179.644 186.081 171.473 194.5C163.302 202.918 151.046 211.089 151.046 211.089L143.927 189.3Z" fill="#0062BA"/>
<path d="M277.51 193.632H216.599C216.104 193.632 215.671 193.199 215.671 192.704C215.671 192.209 216.104 191.775 216.599 191.775H277.51C278.006 191.775 278.439 192.209 278.439 192.704C278.439 193.199 278.068 193.632 277.51 193.632Z" fill="#1EAEF7"/>
</g>
<defs>
<clipPath id="clip0">
<rect width="298" height="298" fill="white"/>
</clipPath>
</defs>
</svg>
