<svg width="78" height="78" viewBox="0 0 78 78" fill="none" xmlns="http://www.w3.org/2000/svg">
<circle cx="39" cy="39" r="39" fill="#022F51"/>
<g clip-path="url(#clip0)">
<path d="M42.3782 46.3632L53.926 50.5662C54.546 50.7919 55.3422 50.5338 56.1903 49.7469C57.0385 48.96 57.8147 47.599 58.3429 46.1478C59.3112 43.4873 59.4556 40.3899 57.8434 39.8032L46.4197 35.6453L47.3 33.2266L58.7237 37.3845C62.072 38.6032 62.1875 43.3016 60.8231 47.0506C59.4586 50.7995 56.3499 54.3244 53.0017 53.1058L41.4539 48.9027L41.4979 48.7818L42.3782 46.3632Z" fill="white"/>
<path d="M62.7716 48.0574L60.7906 47.3364L62.7716 48.0574Z" fill="white"/>
<path d="M62.7716 48.0574L60.7906 47.3364" stroke="white" stroke-width="3.10448" stroke-linecap="square"/>
<path d="M44.4314 48.1122L43.7711 47.8718L44.4314 48.1122Z" fill="white"/>
<path d="M44.4314 48.1122L43.7711 47.8718" stroke="white" stroke-width="3.8806" stroke-linecap="square"/>
<path d="M48.7576 36.2262L48.0973 35.9858L48.7576 36.2262Z" fill="white"/>
<path d="M48.7576 36.2262L48.0973 35.9858" stroke="white" stroke-width="3.8806" stroke-linecap="square"/>
<path d="M46.5944 42.1693L45.9341 41.929L46.5944 42.1693Z" fill="white"/>
<path d="M46.5944 42.1693L45.9341 41.929" stroke="white" stroke-width="3.8806" stroke-linecap="square"/>
<path d="M31.5025 45.868L32.418 43.3527L21.0686 39.2218C20.4238 38.9871 19.9621 38.2493 19.8124 37.0554C19.6627 35.8615 19.9541 34.2583 20.5034 32.7491C21.5105 29.9822 23.4661 27.418 25.1428 28.0283L36.3632 32.1122L37.2787 29.5968L26.0583 25.5129C22.5761 24.2455 19.3431 27.9114 17.9241 31.8103C16.505 35.7092 16.6252 40.5956 20.1074 41.863L31.4567 45.9938L31.5025 45.868Z" fill="white"/>
<path d="M30.5336 44.1755L35.3403 30.969L30.5336 44.1755Z" fill="white"/>
<path d="M30.5336 44.1755L35.3403 30.969" stroke="white" stroke-width="3.10448" stroke-linecap="square"/>
<path d="M36.482 35.0255L38.7931 35.8667L36.482 35.0255Z" fill="white"/>
<path d="M36.482 35.0255L38.7931 35.8667" stroke="white" stroke-width="3.10448" stroke-linecap="square"/>
<path d="M34.319 40.9684L36.6301 41.8096L34.319 40.9684Z" fill="white"/>
<path d="M34.319 40.9684L36.6301 41.8096" stroke="white" stroke-width="3.10448" stroke-linecap="square"/>
<path d="M15.2284 30.7529L17.2094 31.4739L15.2284 30.7529Z" fill="white"/>
<path d="M15.2284 30.7529L17.2094 31.4739" stroke="white" stroke-width="3.10448" stroke-linecap="square"/>
</g>
<defs>
<clipPath id="clip0">
<rect width="52" height="28.8108" fill="white" transform="translate(13 25)"/>
</clipPath>
</defs>
</svg>
