<svg width="1024" height="468" viewBox="0 0 1024 468" fill="none" xmlns="http://www.w3.org/2000/svg">
<rect width="1024" height="468" fill="#0062BA"/>
<path d="M864.312 301.539H774.667C774.029 301.539 773.472 300.981 773.472 300.344V141.214C773.472 140.576 774.029 140.018 774.667 140.018H864.312C864.95 140.018 865.507 140.576 865.507 141.214V223.368C865.507 224.006 864.95 224.564 864.312 224.564C863.675 224.564 863.117 224.006 863.117 223.368V142.409H775.862V299.148H863.117V240.501C863.117 239.863 863.675 239.305 864.312 239.305C864.95 239.305 865.507 239.863 865.507 240.501V300.344C865.507 300.981 865.029 301.539 864.312 301.539Z" fill="white"/>
<path d="M997.863 277.155H882.64C882.002 277.155 881.444 276.598 881.444 275.96C881.444 275.323 882.002 274.765 882.64 274.765H996.668V86.789H883.835V232.054C883.835 232.691 883.277 233.249 882.64 233.249H793.871C793.233 233.249 792.676 232.691 792.676 232.054C792.676 231.416 793.233 230.859 793.871 230.859H881.444V85.5937C881.444 84.9562 882.002 84.3984 882.64 84.3984H997.863C998.501 84.3984 999.059 84.9562 999.059 85.5937V275.96C999.059 276.677 998.581 277.155 997.863 277.155Z" fill="#CFF0FF"/>
<path d="M997.067 368.952H918.737C918.099 368.952 917.541 368.394 917.541 367.757V349.589C917.541 348.951 918.099 348.394 918.737 348.394H1020.97V301.539H945.192C944.555 301.539 943.997 300.981 943.997 300.344V221.934C936.506 221.775 929.733 221.137 925.51 218.189C922.243 215.958 920.091 212.292 919.534 208.308C919.055 204.722 920.012 201.296 922.243 198.746C924.633 195.877 929.813 194.045 934.992 195.957C939.136 197.471 946.069 202.571 946.387 219.544C946.945 219.544 947.503 219.544 947.981 219.544H980.333V182.57H899.055C898.417 182.57 897.859 182.012 897.859 181.375V163.764C897.859 163.127 898.417 162.569 899.055 162.569H981.608C982.245 162.569 982.803 163.127 982.803 163.764C982.803 164.402 982.245 164.96 981.608 164.96H900.25V180.179H981.608C982.245 180.179 982.803 180.737 982.803 181.375V220.739C982.803 221.376 982.245 221.934 981.608 221.934H948.061C947.503 221.934 946.945 221.934 946.467 221.934V299.148H1022.25C1022.88 299.148 1023.44 299.706 1023.44 300.344V349.669C1023.44 350.306 1022.88 350.864 1022.25 350.864H920.012V366.641H997.146C997.784 366.641 998.342 367.199 998.342 367.837C998.342 368.474 997.784 368.952 997.067 368.952ZM930.769 197.551C927.98 197.551 925.43 198.746 924.155 200.26C922.402 202.332 921.685 205.041 922.004 207.989C922.402 211.336 924.235 214.284 926.944 216.197C930.61 218.747 937.144 219.384 944.076 219.464C943.917 213.328 942.881 208.308 940.969 204.563C939.295 201.375 936.984 199.144 934.275 198.188C933.08 197.79 931.885 197.551 930.769 197.551Z" fill="#E3F7FF"/>
<path d="M1022.25 396.364H893.238C892.6 396.364 892.042 395.806 892.042 395.168V300.344C892.042 299.706 892.6 299.148 893.238 299.148H934.753C935.391 299.148 935.948 299.706 935.948 300.344C935.948 300.981 935.391 301.539 934.753 301.539H894.433V393.973H1021.05V359.47C1021.05 358.832 1021.61 358.274 1022.25 358.274C1022.88 358.274 1023.44 358.832 1023.44 359.47V395.168C1023.44 395.806 1022.88 396.364 1022.25 396.364Z" fill="white"/>
<path d="M981.688 147.19H899.055C898.417 147.19 897.859 146.632 897.859 145.995C897.859 145.357 898.417 144.799 899.055 144.799H981.608C982.245 144.799 982.803 145.357 982.803 145.995C982.803 146.632 982.325 147.19 981.688 147.19Z" fill="white"/>
<path d="M844.63 177.789H793.871C793.233 177.789 792.676 177.231 792.676 176.593C792.676 175.956 793.233 175.398 793.871 175.398H844.63C845.267 175.398 845.825 175.956 845.825 176.593C845.825 177.231 845.267 177.789 844.63 177.789Z" fill="white"/>
<path d="M844.63 195.718H793.871C793.233 195.718 792.676 195.16 792.676 194.522C792.676 193.885 793.233 193.327 793.871 193.327H844.63C845.267 193.327 845.825 193.885 845.825 194.522C845.825 195.16 845.267 195.718 844.63 195.718Z" fill="white"/>
<path d="M844.63 214.444H793.871C793.233 214.444 792.676 213.886 792.676 213.248C792.676 212.611 793.233 212.053 793.871 212.053H844.63C845.267 212.053 845.825 212.611 845.825 213.248C845.825 213.886 845.267 214.444 844.63 214.444Z" fill="white"/>
<path d="M749.168 236.676C749.168 236.676 755.224 211.575 761.519 204.722C765.663 200.18 768.77 192.53 771.878 187.192C773.472 184.482 774.029 180.976 776.898 181.534C785.504 183.207 773.87 206.475 773.87 206.475L773.551 246.238L760.961 255.641L749.168 236.676Z" fill="#E3F7FF"/>
<path d="M671.714 275.402C671.714 275.402 647.092 320.265 642.072 333.333C636.972 346.401 642.789 413.814 661.993 441.545C671.794 455.649 657.292 468 675.778 468C694.265 468 783.273 468 783.273 468C783.273 468 788.054 464.095 791.241 450.23C793.473 440.429 791.241 420.906 791.241 420.906C791.241 420.906 841.921 368.394 844.072 357.557C846.224 346.72 826.303 314.129 810.445 323.93C794.588 333.731 769.089 347.437 769.089 347.437L767.256 324.249C767.256 324.249 790.285 315.643 791.401 301.459C791.401 301.459 776.579 301.3 775.384 301.3C774.189 301.3 773.472 300.423 773.472 298.989C773.472 297.555 773.551 246.158 773.551 246.158C773.551 246.158 759.607 249.983 749.168 236.596L742.235 261.936L695.62 255.083L671.714 275.402Z" fill="#022F51"/>
<path d="M665.738 295.642C665.738 295.642 674.503 311.738 693.628 312.535C712.752 313.332 712.274 286 712.274 286C712.274 286 724.705 278.43 727.494 270.382C730.283 262.334 730.442 251.417 732.753 248.389C735.064 245.282 740.482 240.899 740.721 236.676C741.04 232.452 732.275 233.01 725.741 221.217C719.206 209.423 710.521 198.666 710.521 198.666L671.316 216.117L660.877 270.462C660.957 270.382 665.738 285.203 665.738 295.642Z" fill="#E3F7FF"/>
<path d="M663.826 280.901C663.826 280.901 671.077 286.08 678.886 290.144C686.695 294.208 698.249 285.682 690.679 270.382C683.109 255.083 682.631 244.246 690.44 243.529C698.249 242.811 696.895 253.489 703.588 250.86C708.13 249.107 707.413 242.413 707.413 233.01C707.413 223.607 722.792 215.639 722.314 203.607C721.836 191.574 708.051 181.295 695.381 185.12C695.381 185.12 675.778 178.028 659.284 197.391C642.789 216.755 639.841 231.974 640.319 244.883C641.116 267.275 659.363 277.952 663.826 280.901Z" fill="#1EAEF7"/>
<path d="M825.107 327.436C825.107 327.436 829.251 323.691 833.394 315.882C839.371 304.886 843.275 281.698 851.563 281.698C859.85 281.698 852.28 301.3 852.28 301.3C852.28 301.3 862.161 301.3 863.276 301.3C864.392 301.3 865.507 300.503 865.507 299.148C865.507 297.794 865.507 295.881 865.507 293.81C865.507 284.008 865.507 271.817 865.507 271.817C865.507 271.817 870.368 272.534 872.599 281.458C874.83 290.463 875.388 297.316 877.699 305.842C880.249 315.484 871.085 323.293 860.567 334.13C850.049 344.967 834.271 355.485 834.271 355.485L825.107 327.436Z" fill="#E3F7FF"/>
<path d="M997.067 333.014H918.657C918.019 333.014 917.462 332.457 917.462 331.819C917.462 331.182 918.019 330.624 918.657 330.624H997.067C997.704 330.624 998.262 331.182 998.262 331.819C998.262 332.457 997.784 333.014 997.067 333.014Z" fill="white"/>
</svg>
