<svg width="1024" height="468" viewBox="0 0 1024 468" fill="none" xmlns="http://www.w3.org/2000/svg">
<g clip-path="url(#clip0)">
<rect width="1024" height="468" fill="#6A6A6A"/>
<path d="M820.006 340.016H746.469C745.946 340.016 745.489 339.557 745.489 339.033V208.082C745.489 207.557 745.946 207.098 746.469 207.098H820.006C820.529 207.098 820.987 207.557 820.987 208.082V275.689C820.987 276.213 820.529 276.672 820.006 276.672C819.483 276.672 819.026 276.213 819.026 275.689V209.066H747.45V338.049H819.026V289.787C819.026 289.262 819.483 288.803 820.006 288.803C820.529 288.803 820.987 289.262 820.987 289.787V339.033C820.987 339.557 820.594 340.016 820.006 340.016Z" fill="white"/>
<path d="M929.56 319.951H835.04C834.517 319.951 834.06 319.492 834.06 318.967C834.06 318.443 834.517 317.984 835.04 317.984H928.579V163.295H836.021V282.836C836.021 283.361 835.563 283.82 835.04 283.82H762.222C761.699 283.82 761.242 283.361 761.242 282.836C761.242 282.311 761.699 281.852 762.222 281.852H834.06V162.311C834.06 161.787 834.517 161.328 835.04 161.328H929.56C930.083 161.328 930.54 161.787 930.54 162.311V318.967C930.54 319.557 930.148 319.951 929.56 319.951Z" fill="#CFF0FF"/>
<path d="M928.906 395.492H864.651C864.128 395.492 863.671 395.033 863.671 394.508V379.557C863.671 379.033 864.128 378.574 864.651 378.574H948.516V340.016H886.353C885.83 340.016 885.372 339.557 885.372 339.033V274.508C879.228 274.377 873.672 273.852 870.207 271.426C867.527 269.59 865.762 266.574 865.305 263.295C864.913 260.344 865.697 257.525 867.527 255.426C869.488 253.066 873.737 251.557 877.986 253.131C881.385 254.377 887.072 258.574 887.333 272.541C887.791 272.541 888.248 272.541 888.641 272.541H915.179V242.115H848.506C847.983 242.115 847.525 241.656 847.525 241.131V226.639C847.525 226.115 847.983 225.656 848.506 225.656H916.225C916.748 225.656 917.206 226.115 917.206 226.639C917.206 227.164 916.748 227.623 916.225 227.623H849.486V240.148H916.225C916.748 240.148 917.206 240.607 917.206 241.131V273.525C917.206 274.049 916.748 274.508 916.225 274.508H888.706C888.248 274.508 887.791 274.508 887.399 274.508V338.049H949.562C950.085 338.049 950.542 338.508 950.542 339.033V379.623C950.542 380.148 950.085 380.607 949.562 380.607H865.697V393.59H928.972C929.494 393.59 929.952 394.049 929.952 394.574C929.952 395.098 929.494 395.492 928.906 395.492ZM874.521 254.443C872.234 254.443 870.142 255.426 869.096 256.672C867.658 258.377 867.07 260.607 867.331 263.033C867.658 265.787 869.161 268.213 871.384 269.787C874.391 271.885 879.751 272.41 885.438 272.475C885.307 267.426 884.457 263.295 882.888 260.213C881.516 257.59 879.62 255.754 877.398 254.967C876.417 254.639 875.437 254.443 874.521 254.443Z" fill="#E3F7FF"/>
<path d="M949.562 418.049H843.734C843.211 418.049 842.753 417.59 842.753 417.065V339.033C842.753 338.508 843.211 338.049 843.734 338.049H877.79C878.313 338.049 878.77 338.508 878.77 339.033C878.77 339.557 878.313 340.016 877.79 340.016H844.714V416.082H948.581V387.688C948.581 387.164 949.039 386.705 949.562 386.705C950.085 386.705 950.542 387.164 950.542 387.688V417.065C950.542 417.59 950.085 418.049 949.562 418.049Z" fill="white"/>
<path d="M916.29 213H848.506C847.983 213 847.525 212.541 847.525 212.016C847.525 211.492 847.983 211.033 848.506 211.033H916.225C916.748 211.033 917.206 211.492 917.206 212.016C917.206 212.541 916.813 213 916.29 213Z" fill="white"/>
<path d="M803.86 238.18H762.222C761.699 238.18 761.242 237.721 761.242 237.197C761.242 236.672 761.699 236.213 762.222 236.213H803.86C804.383 236.213 804.841 236.672 804.841 237.197C804.841 237.721 804.383 238.18 803.86 238.18Z" fill="white"/>
<path d="M803.86 252.935H762.222C761.699 252.935 761.242 252.475 761.242 251.951C761.242 251.426 761.699 250.967 762.222 250.967H803.86C804.383 250.967 804.841 251.426 804.841 251.951C804.841 252.475 804.383 252.935 803.86 252.935Z" fill="white"/>
<path d="M803.86 268.344H762.222C761.699 268.344 761.242 267.885 761.242 267.361C761.242 266.836 761.699 266.377 762.222 266.377H803.86C804.383 266.377 804.841 266.836 804.841 267.361C804.841 267.885 804.383 268.344 803.86 268.344Z" fill="white"/>
<path d="M725.552 286.639C725.552 286.639 730.52 265.984 735.684 260.344C739.083 256.607 741.632 250.311 744.181 245.918C745.488 243.688 745.946 240.803 748.299 241.262C755.359 242.639 745.815 261.787 745.815 261.787L745.554 294.508L735.226 302.246L725.552 286.639Z" fill="#E3F7FF"/>
<path d="M662.016 318.508C662.016 318.508 641.818 355.426 637.7 366.18C633.516 376.934 638.288 432.41 654.041 455.229C662.081 466.836 650.185 477 665.349 477C680.514 477 753.529 477 753.529 477C753.529 477 757.451 473.787 760.065 462.377C761.895 454.311 760.065 438.246 760.065 438.246C760.065 438.246 801.638 395.033 803.403 386.115C805.168 377.197 788.826 350.377 775.818 358.443C762.811 366.508 741.893 377.787 741.893 377.787L740.39 358.705C740.39 358.705 759.281 351.623 760.196 339.951C760.196 339.951 748.038 339.82 747.057 339.82C746.077 339.82 745.489 339.098 745.489 337.918C745.489 336.738 745.554 294.443 745.554 294.443C745.554 294.443 734.115 297.59 725.552 286.574L719.865 307.426L681.626 301.787L662.016 318.508Z" fill="#022F51"/>
<path d="M657.113 335.164C657.113 335.164 664.304 348.41 679.992 349.066C695.679 349.721 695.287 327.229 695.287 327.229C695.287 327.229 705.484 321 707.772 314.377C710.06 307.754 710.191 298.77 712.086 296.279C713.982 293.721 718.427 290.115 718.623 286.639C718.884 283.164 711.694 283.623 706.334 273.918C700.974 264.213 693.849 255.361 693.849 255.361L661.689 269.721L653.126 314.443C653.191 314.377 657.113 326.574 657.113 335.164Z" fill="#E3F7FF"/>
<path d="M655.545 323.033C655.545 323.033 661.493 327.295 667.899 330.639C674.305 333.984 683.783 326.967 677.573 314.377C671.363 301.787 670.971 292.869 677.377 292.279C683.783 291.689 682.672 300.475 688.162 298.312C691.888 296.869 691.3 291.361 691.3 283.623C691.3 275.885 703.916 269.328 703.523 259.426C703.131 249.525 691.823 241.066 681.43 244.213C681.43 244.213 665.349 238.377 651.819 254.312C638.288 270.246 635.869 282.771 636.261 293.394C636.915 311.82 651.884 320.607 655.545 323.033Z" fill="#1EAEF7"/>
<path d="M787.846 361.328C787.846 361.328 791.245 358.246 794.644 351.82C799.546 342.77 802.749 323.689 809.547 323.689C816.346 323.689 810.136 339.82 810.136 339.82C810.136 339.82 818.241 339.82 819.156 339.82C820.071 339.82 820.987 339.164 820.987 338.049C820.987 336.934 820.987 335.361 820.987 333.656C820.987 325.59 820.987 315.557 820.987 315.557C820.987 315.557 824.974 316.148 826.804 323.492C828.634 330.902 829.092 336.541 830.988 343.557C833.079 351.492 825.562 357.918 816.934 366.836C808.305 375.754 795.363 384.41 795.363 384.41L787.846 361.328Z" fill="#E3F7FF"/>
<path d="M928.906 365.918H864.586C864.063 365.918 863.605 365.459 863.605 364.935C863.605 364.41 864.063 363.951 864.586 363.951H928.906C929.429 363.951 929.887 364.41 929.887 364.935C929.887 365.459 929.495 365.918 928.906 365.918Z" fill="white"/>
<rect x="-40" y="90" width="1183.65" height="482.525" fill="#6A6A6A"/>
<path d="M857.24 320.932H907.899C908.259 320.932 908.575 320.617 908.575 320.257V230.332C908.575 229.971 908.259 229.656 907.899 229.656H857.24C856.88 229.656 856.565 229.971 856.565 230.332V276.758C856.565 277.118 856.88 277.433 857.24 277.433C857.601 277.433 857.916 277.118 857.916 276.758V231.007H907.224V319.581H857.916V286.439C857.916 286.079 857.601 285.764 857.24 285.764C856.88 285.764 856.565 286.079 856.565 286.439V320.257C856.565 320.617 856.835 320.932 857.24 320.932Z" fill="white"/>
<path d="M781.77 307.153H846.883C847.244 307.153 847.559 306.838 847.559 306.477C847.559 306.117 847.244 305.802 846.883 305.802H782.445V199.576H846.208V281.666C846.208 282.026 846.523 282.341 846.883 282.341H897.047C897.407 282.341 897.722 282.026 897.722 281.666C897.722 281.306 897.407 280.99 897.047 280.99H847.559V198.901C847.559 198.54 847.244 198.225 846.883 198.225H781.77C781.41 198.225 781.094 198.54 781.094 198.901V306.477C781.094 306.883 781.365 307.153 781.77 307.153Z" fill="white"/>
<path d="M782.22 359.028H826.485C826.845 359.028 827.16 358.712 827.16 358.352V348.085C827.16 347.725 826.845 347.41 826.485 347.41H768.711V320.932H811.535C811.895 320.932 812.21 320.617 812.21 320.257V275.947C816.443 275.857 820.271 275.497 822.657 273.831C824.503 272.57 825.719 270.498 826.034 268.247C826.305 266.221 825.764 264.284 824.503 262.843C823.152 261.222 820.226 260.187 817.299 261.267C814.957 262.123 811.039 265.005 810.859 274.596C810.544 274.596 810.229 274.596 809.959 274.596H791.676V253.702H837.607C837.967 253.702 838.283 253.387 838.283 253.027V243.075C838.283 242.715 837.967 242.4 837.607 242.4H790.956C790.596 242.4 790.281 242.715 790.281 243.075C790.281 243.435 790.596 243.751 790.956 243.751H836.932V252.351H790.956C790.596 252.351 790.281 252.667 790.281 253.027V275.272C790.281 275.632 790.596 275.947 790.956 275.947H809.914C810.229 275.947 810.544 275.947 810.814 275.947V319.581H767.991C767.63 319.581 767.315 319.896 767.315 320.257V348.13C767.315 348.491 767.63 348.806 767.991 348.806H825.764V357.722H782.175C781.815 357.722 781.5 358.037 781.5 358.397C781.5 358.757 781.815 359.028 782.22 359.028ZM819.685 262.168C821.261 262.168 822.702 262.843 823.423 263.699C824.413 264.87 824.819 266.401 824.638 268.067C824.413 269.958 823.378 271.624 821.847 272.705C819.775 274.146 816.083 274.506 812.165 274.551C812.255 271.084 812.841 268.247 813.921 266.131C814.867 264.329 816.173 263.068 817.704 262.528C818.379 262.303 819.055 262.168 819.685 262.168Z" fill="#E3F7FF"/>
<path d="M767.991 374.518H840.894C841.255 374.518 841.57 374.203 841.57 373.843V320.257C841.57 319.897 841.255 319.581 840.894 319.581H817.434C817.073 319.581 816.758 319.897 816.758 320.257C816.758 320.617 817.073 320.932 817.434 320.932H840.219V373.167H768.666V353.669C768.666 353.309 768.351 352.994 767.991 352.994C767.63 352.994 767.315 353.309 767.315 353.669V373.843C767.315 374.203 767.63 374.518 767.991 374.518Z" fill="white"/>
<path d="M790.911 233.709H837.607C837.967 233.709 838.283 233.394 838.283 233.033C838.283 232.673 837.967 232.358 837.607 232.358H790.956C790.596 232.358 790.281 232.673 790.281 233.033C790.281 233.394 790.551 233.709 790.911 233.709Z" fill="white"/>
<path d="M868.363 251H897.047C897.407 251 897.722 250.685 897.722 250.325C897.722 249.965 897.407 249.649 897.047 249.649H868.363C868.002 249.649 867.687 249.965 867.687 250.325C867.687 250.685 868.002 251 868.363 251Z" fill="white"/>
<path d="M868.363 261.132H897.047C897.407 261.132 897.722 260.817 897.722 260.457C897.722 260.096 897.407 259.781 897.047 259.781H868.363C868.002 259.781 867.687 260.096 867.687 260.457C867.687 260.817 868.002 261.132 868.363 261.132Z" fill="white"/>
<path d="M868.363 271.714H897.047C897.407 271.714 897.722 271.399 897.722 271.039C897.722 270.678 897.407 270.363 897.047 270.363H868.363C868.002 270.363 867.687 270.678 867.687 271.039C867.687 271.399 868.002 271.714 868.363 271.714Z" fill="white"/>
<path d="M782.22 338.719H826.53C826.89 338.719 827.205 338.404 827.205 338.044C827.205 337.683 826.89 337.368 826.53 337.368H782.22C781.86 337.368 781.545 337.683 781.545 338.044C781.545 338.404 781.815 338.719 782.22 338.719Z" fill="white"/>
<line x1="-82" y1="435" x2="812" y2="435" stroke="white" stroke-width="2"/>
<line x1="847" y1="281.5" x2="1192" y2="281.5" stroke="white" stroke-width="3"/>
<line x1="811" y1="435" x2="811" y2="374" stroke="white" stroke-width="2"/>
<path d="M786.329 398.9L789.612 398.044L789.369 396.822L786.086 397.8C785.478 396.089 784.384 394.622 782.925 393.644L784.749 390.711L783.655 390.1L781.831 393.033C780.373 392.3 778.549 392.056 776.847 392.422L775.996 389L774.78 389.244L775.631 392.667C773.929 393.278 772.592 394.378 771.62 395.722L768.58 393.889L767.973 394.989L771.012 396.822C770.282 398.289 769.918 400.122 770.282 401.833L767 402.689L767.243 403.911L770.525 403.056C771.012 404.767 772.106 406.233 773.565 407.211L771.863 410.144L772.835 410.756L774.537 407.822C775.753 408.433 776.969 408.678 778.184 408.678C778.671 408.678 779.157 408.678 779.522 408.556L780.373 411.733L781.588 411.367L780.859 408.311C782.561 407.7 784.02 406.6 785.114 405.133L787.91 406.844L788.518 405.867L785.722 404.156C786.451 402.444 786.694 400.733 786.329 398.9ZM784.263 404.156C783.29 405.744 781.71 406.844 780.008 407.333C778.184 407.822 776.361 407.456 774.659 406.478C773.078 405.5 771.984 404.033 771.498 402.2C770.525 398.411 772.835 394.622 776.604 393.644C777.212 393.522 777.698 393.4 778.306 393.4C781.467 393.4 784.263 395.6 785.114 398.778C785.478 400.611 785.235 402.567 784.263 404.156Z" fill="white"/>
<path d="M794.961 414.667C795.082 414.056 795.082 413.444 794.839 412.833L798 411.611L797.514 410.511L794.353 411.733C793.745 410.633 792.772 409.9 791.557 409.533L792.043 406.111L790.949 405.867L790.463 409.289C789.49 409.289 788.396 409.533 787.545 410.144C787.423 410.267 787.302 410.389 787.059 410.511L784.506 408.311L783.776 409.289L786.451 411.489C786.086 411.978 785.843 412.589 785.721 413.2C785.6 413.811 785.6 414.422 785.843 415.033L782.682 416.256L783.169 417.356L786.329 416.133C786.937 417.233 787.91 417.967 789.125 418.333L788.518 421.756L789.733 422L790.22 418.578H790.341C791.557 418.578 792.651 418.089 793.502 417.233L796.176 419.433L796.906 418.456L794.231 416.256C794.596 415.889 794.839 415.278 794.961 414.667ZM792.408 416.744C791.678 417.233 790.706 417.478 789.855 417.356C788.031 417.111 786.694 415.278 786.937 413.444C787.059 412.589 787.545 411.733 788.274 411.122C789.004 410.511 789.976 410.389 790.827 410.511C792.651 410.756 793.988 412.589 793.745 414.422C793.623 415.4 793.137 416.133 792.408 416.744Z" fill="white"/>
<path d="M786.329 398.9L789.612 398.044L789.369 396.822L786.086 397.8C785.478 396.089 784.384 394.622 782.925 393.644L784.749 390.711L783.655 390.1L781.831 393.033C780.373 392.3 778.549 392.056 776.847 392.422L775.996 389L774.78 389.244L775.631 392.667C773.929 393.278 772.592 394.378 771.62 395.722L768.58 393.889L767.973 394.989L771.012 396.822C770.282 398.289 769.918 400.122 770.282 401.833L767 402.689L767.243 403.911L770.525 403.056C771.012 404.767 772.106 406.233 773.565 407.211L771.863 410.144L772.835 410.756L774.537 407.822C775.753 408.433 776.969 408.678 778.184 408.678C778.671 408.678 779.157 408.678 779.522 408.556L780.373 411.733L781.588 411.367L780.859 408.311C782.561 407.7 784.02 406.6 785.114 405.133L787.91 406.844L788.518 405.867L785.722 404.156C786.451 402.444 786.694 400.733 786.329 398.9ZM784.263 404.156C783.29 405.744 781.71 406.844 780.008 407.333C778.184 407.822 776.361 407.456 774.659 406.478C773.078 405.5 771.984 404.033 771.498 402.2C770.525 398.411 772.835 394.622 776.604 393.644C777.212 393.522 777.698 393.4 778.306 393.4C781.467 393.4 784.263 395.6 785.114 398.778C785.478 400.611 785.235 402.567 784.263 404.156Z" fill="white"/>
<path d="M794.961 414.667C795.082 414.056 795.082 413.444 794.839 412.833L798 411.611L797.514 410.511L794.353 411.733C793.745 410.633 792.772 409.9 791.557 409.533L792.043 406.111L790.949 405.867L790.463 409.289C789.49 409.289 788.396 409.533 787.545 410.144C787.423 410.267 787.302 410.389 787.059 410.511L784.506 408.311L783.776 409.289L786.451 411.489C786.086 411.978 785.843 412.589 785.721 413.2C785.6 413.811 785.6 414.422 785.843 415.033L782.682 416.256L783.169 417.356L786.329 416.133C786.937 417.233 787.91 417.967 789.125 418.333L788.518 421.756L789.733 422L790.22 418.578H790.341C791.557 418.578 792.651 418.089 793.502 417.233L796.176 419.433L796.906 418.456L794.231 416.256C794.596 415.889 794.839 415.278 794.961 414.667ZM792.408 416.744C791.678 417.233 790.706 417.478 789.855 417.356C788.031 417.111 786.694 415.278 786.937 413.444C787.059 412.589 787.545 411.733 788.274 411.122C789.004 410.511 789.976 410.389 790.827 410.511C792.651 410.756 793.988 412.589 793.745 414.422C793.623 415.4 793.137 416.133 792.408 416.744Z" fill="white"/>
<rect x="-356" y="-85" width="1441" height="566" fill="#0062BA"/>
<path d="M226.312 301.539H136.667C136.029 301.539 135.472 300.981 135.472 300.344V141.214C135.472 140.576 136.029 140.018 136.667 140.018H226.312C226.95 140.018 227.507 140.576 227.507 141.214V223.368C227.507 224.006 226.95 224.564 226.312 224.564C225.675 224.564 225.117 224.006 225.117 223.368V142.409H137.862V299.148H225.117V240.501C225.117 239.863 225.675 239.305 226.312 239.305C226.95 239.305 227.507 239.863 227.507 240.501V300.344C227.507 300.981 227.029 301.539 226.312 301.539Z" fill="white"/>
<path d="M359.863 277.155H244.64C244.002 277.155 243.444 276.598 243.444 275.96C243.444 275.323 244.002 274.765 244.64 274.765H358.668V86.789H245.835V232.054C245.835 232.691 245.277 233.249 244.64 233.249H155.871C155.233 233.249 154.676 232.691 154.676 232.054C154.676 231.416 155.233 230.859 155.871 230.859H243.444V85.5937C243.444 84.9562 244.002 84.3984 244.64 84.3984H359.863C360.501 84.3984 361.059 84.9562 361.059 85.5937V275.96C361.059 276.677 360.581 277.155 359.863 277.155Z" fill="#CFF0FF"/>
<path d="M359.067 368.952H280.737C280.099 368.952 279.541 368.394 279.541 367.757V349.589C279.541 348.951 280.099 348.394 280.737 348.394H382.972V301.539H307.192C306.555 301.539 305.997 300.981 305.997 300.344V221.934C298.506 221.775 291.733 221.137 287.51 218.189C284.243 215.958 282.091 212.292 281.534 208.308C281.055 204.722 282.012 201.296 284.243 198.746C286.633 195.877 291.813 194.045 296.992 195.957C301.136 197.471 308.069 202.571 308.387 219.544C308.945 219.544 309.503 219.544 309.981 219.544H342.333V182.57H261.055C260.417 182.57 259.859 182.012 259.859 181.375V163.764C259.859 163.127 260.417 162.569 261.055 162.569H343.608C344.245 162.569 344.803 163.127 344.803 163.764C344.803 164.402 344.245 164.96 343.608 164.96H262.25V180.179H343.608C344.245 180.179 344.803 180.737 344.803 181.375V220.739C344.803 221.376 344.245 221.934 343.608 221.934H310.061C309.503 221.934 308.945 221.934 308.467 221.934V299.148H384.247C384.884 299.148 385.442 299.706 385.442 300.344V349.669C385.442 350.306 384.884 350.864 384.247 350.864H282.012V366.641H359.146C359.784 366.641 360.342 367.199 360.342 367.837C360.342 368.474 359.784 368.952 359.067 368.952ZM292.769 197.551C289.98 197.551 287.43 198.746 286.155 200.26C284.402 202.332 283.685 205.041 284.004 207.989C284.402 211.336 286.235 214.284 288.944 216.197C292.61 218.747 299.144 219.384 306.076 219.464C305.917 213.328 304.881 208.308 302.969 204.563C301.295 201.375 298.984 199.144 296.275 198.188C295.08 197.79 293.885 197.551 292.769 197.551Z" fill="#E3F7FF"/>
<path d="M384.247 396.364H255.238C254.6 396.364 254.042 395.806 254.042 395.168V300.344C254.042 299.706 254.6 299.148 255.238 299.148H296.753C297.391 299.148 297.949 299.706 297.949 300.344C297.949 300.981 297.391 301.539 296.753 301.539H256.433V393.973H383.052V359.47C383.052 358.832 383.609 358.274 384.247 358.274C384.884 358.274 385.442 358.832 385.442 359.47V395.168C385.442 395.806 384.884 396.364 384.247 396.364Z" fill="white"/>
<path d="M343.688 147.19H261.055C260.417 147.19 259.859 146.632 259.859 145.995C259.859 145.357 260.417 144.799 261.055 144.799H343.608C344.245 144.799 344.803 145.357 344.803 145.995C344.803 146.632 344.325 147.19 343.688 147.19Z" fill="white"/>
<path d="M206.63 177.789H155.871C155.233 177.789 154.676 177.231 154.676 176.593C154.676 175.956 155.233 175.398 155.871 175.398H206.63C207.267 175.398 207.825 175.956 207.825 176.593C207.825 177.231 207.267 177.789 206.63 177.789Z" fill="white"/>
<path d="M206.63 195.718H155.871C155.233 195.718 154.676 195.16 154.676 194.522C154.676 193.885 155.233 193.327 155.871 193.327H206.63C207.267 193.327 207.825 193.885 207.825 194.522C207.825 195.16 207.267 195.718 206.63 195.718Z" fill="white"/>
<path d="M206.63 214.444H155.871C155.233 214.444 154.676 213.886 154.676 213.248C154.676 212.611 155.233 212.053 155.871 212.053H206.63C207.267 212.053 207.825 212.611 207.825 213.248C207.825 213.886 207.267 214.444 206.63 214.444Z" fill="white"/>
<path d="M111.168 236.676C111.168 236.676 117.224 211.575 123.519 204.722C127.663 200.18 130.77 192.53 133.878 187.192C135.472 184.482 136.029 180.976 138.898 181.534C147.504 183.207 135.87 206.475 135.87 206.475L135.551 246.238L122.961 255.641L111.168 236.676Z" fill="#E3F7FF"/>
<path d="M33.7145 275.402C33.7145 275.402 9.09194 320.265 4.07181 333.333C-1.028 346.401 4.78897 413.814 23.993 441.545C33.7942 455.649 19.2916 468 37.7784 468C56.2652 468 145.273 468 145.273 468C145.273 468 150.054 464.095 153.241 450.23C155.473 440.429 153.241 420.906 153.241 420.906C153.241 420.906 203.921 368.394 206.072 357.557C208.224 346.72 188.303 314.129 172.445 323.93C156.588 333.731 131.089 347.437 131.089 347.437L129.256 324.249C129.256 324.249 152.285 315.643 153.401 301.459C153.401 301.459 138.579 301.3 137.384 301.3C136.189 301.3 135.472 300.423 135.472 298.989C135.472 297.555 135.551 246.158 135.551 246.158C135.551 246.158 121.607 249.983 111.168 236.596L104.235 261.936L57.6199 255.083L33.7145 275.402Z" fill="#022F51"/>
<path d="M27.7381 295.642C27.7381 295.642 36.5034 311.738 55.6277 312.535C74.752 313.332 74.2739 286 74.2739 286C74.2739 286 86.7047 278.43 89.4936 270.382C92.2826 262.334 92.442 251.417 94.7528 248.389C97.0637 245.282 102.482 240.899 102.721 236.676C103.04 232.452 94.2747 233.01 87.7406 221.217C81.2064 209.423 72.5208 198.666 72.5208 198.666L33.316 216.117L22.8773 270.462C22.957 270.382 27.7381 285.203 27.7381 295.642Z" fill="#E3F7FF"/>
<path d="M25.8257 280.901C25.8257 280.901 33.077 286.08 40.8861 290.144C48.6952 294.208 60.2495 285.682 52.6794 270.382C45.1094 255.083 44.6313 244.246 52.4404 243.529C60.2495 242.811 58.8948 253.489 65.5883 250.86C70.1304 249.107 69.4132 242.413 69.4132 233.01C69.4132 223.607 84.7923 215.639 84.3142 203.607C83.8361 191.574 70.0507 181.295 57.3808 185.12C57.3808 185.12 37.7784 178.028 21.2837 197.391C4.78899 216.755 1.84066 231.974 2.31877 244.883C3.11561 267.275 21.3634 277.952 25.8257 280.901Z" fill="#1EAEF7"/>
<path d="M187.107 327.436C187.107 327.436 191.251 323.691 195.394 315.882C201.371 304.886 205.275 281.698 213.563 281.698C221.85 281.698 214.28 301.3 214.28 301.3C214.28 301.3 224.161 301.3 225.276 301.3C226.392 301.3 227.507 300.503 227.507 299.148C227.507 297.794 227.507 295.881 227.507 293.81C227.507 284.008 227.507 271.817 227.507 271.817C227.507 271.817 232.368 272.534 234.599 281.458C236.83 290.463 237.388 297.316 239.699 305.842C242.249 315.484 233.085 323.293 222.567 334.13C212.049 344.967 196.271 355.485 196.271 355.485L187.107 327.436Z" fill="#E3F7FF"/>
<path d="M359.067 333.014H280.657C280.019 333.014 279.462 332.457 279.462 331.819C279.462 331.182 280.019 330.624 280.657 330.624H359.067C359.704 330.624 360.262 331.182 360.262 331.819C360.262 332.457 359.784 333.014 359.067 333.014Z" fill="white"/>
</g>
<defs>
<clipPath id="clip0">
<rect width="1024" height="468" fill="white"/>
</clipPath>
</defs>
</svg>
