<svg width="78" height="78" viewBox="0 0 78 78" fill="none" xmlns="http://www.w3.org/2000/svg">
<circle cx="39" cy="39" r="39" fill="#022F51"/>
<mask id="path-2-inside-1" fill="white">
<path d="M39.6669 49.338H36.8058L37.4925 45.396L37.378 45.2728C36.8058 44.9033 36.5769 44.4105 36.5769 43.7946C36.5769 42.8091 37.378 41.9468 38.2936 41.9468C39.2092 41.9468 40.0103 42.8091 40.0103 43.7946C40.0103 44.5337 39.5525 45.0265 39.2092 45.2728L39.0947 45.396L39.6669 49.338Z"/>
</mask>
<path d="M39.6669 49.338V53.338H44.2895L43.6255 48.7634L39.6669 49.338ZM36.8058 49.338L32.8651 48.6516L32.0488 53.338H36.8058V49.338ZM37.4925 45.396L41.4331 46.0825L41.7737 44.1274L40.423 42.6735L37.4925 45.396ZM37.378 45.2728L40.3085 42.5503L39.9682 42.184L39.5481 41.9127L37.378 45.2728ZM39.2092 45.2728L36.8771 42.023L36.5515 42.2567L36.2787 42.5503L39.2092 45.2728ZM39.0947 45.396L36.1642 42.6735L34.8612 44.0761L35.1362 45.9707L39.0947 45.396ZM39.6669 45.338H36.8058V53.338H39.6669V45.338ZM40.7465 50.0245L41.4331 46.0825L33.5518 44.7096L32.8651 48.6516L40.7465 50.0245ZM40.423 42.6735L40.3085 42.5503L34.4475 47.9954L34.562 48.1186L40.423 42.6735ZM39.5481 41.9127C39.7567 42.0474 40.072 42.3219 40.308 42.7735C40.538 43.2137 40.5769 43.6007 40.5769 43.7946H32.5769C32.5769 44.6044 32.7302 45.5458 33.2178 46.4787C33.7113 47.423 34.4271 48.1287 35.2079 48.633L39.5481 41.9127ZM40.5769 43.7946C40.5769 44.383 40.3451 44.8763 40.0224 45.2237C39.7032 45.5673 39.1162 45.9468 38.2936 45.9468V37.9468C34.8967 37.9468 32.5769 40.8823 32.5769 43.7946H40.5769ZM38.2936 45.9468C37.471 45.9468 36.884 45.5673 36.5648 45.2237C36.2421 44.8763 36.0103 44.383 36.0103 43.7946H44.0103C44.0103 40.8823 41.6905 37.9468 38.2936 37.9468V45.9468ZM36.0103 43.7946C36.0103 43.2957 36.1748 42.867 36.3674 42.5654C36.5404 42.2946 36.7313 42.1276 36.8771 42.023L41.5412 48.5227C42.4313 47.884 44.0103 46.3346 44.0103 43.7946H36.0103ZM36.2787 42.5503L36.1642 42.6735L42.0252 48.1186L42.1396 47.9954L36.2787 42.5503ZM35.1362 45.9707L35.7084 49.9127L43.6255 48.7634L43.0532 44.8214L35.1362 45.9707Z" fill="white" mask="url(#path-2-inside-1)"/>
<mask id="path-4-inside-2" fill="white">
<path d="M48.0732 35.2686V30.2322C48.0732 25.4357 43.7471 21.4785 38.5799 21.4785C33.4127 21.4785 29.0866 25.4357 29.0866 30.2322V35.2686H26.5631V54.4549H50.5967V35.2686H48.0732ZM31.49 30.2322C31.49 26.7547 34.7345 23.8768 38.5799 23.8768C42.4253 23.8768 45.6698 26.7547 45.6698 30.2322V35.2686H31.49V30.2322ZM48.1934 52.0566H28.9665V37.6669H48.1934V52.0566Z"/>
</mask>
<path d="M48.0732 35.2686H44.0732V39.2686H48.0732V35.2686ZM29.0866 35.2686V39.2686H33.0866V35.2686H29.0866ZM26.5631 35.2686V31.2686H22.5631V35.2686H26.5631ZM26.5631 54.4549H22.5631V58.4549H26.5631V54.4549ZM50.5967 54.4549V58.4549H54.5967V54.4549H50.5967ZM50.5967 35.2686H54.5967V31.2686H50.5967V35.2686ZM45.6698 35.2686V39.2686H49.6698V35.2686H45.6698ZM31.49 35.2686H27.49V39.2686H31.49V35.2686ZM48.1934 52.0566V56.0566H52.1934V52.0566H48.1934ZM28.9665 52.0566H24.9665V56.0566H28.9665V52.0566ZM28.9665 37.6669V33.6669H24.9665V37.6669H28.9665ZM48.1934 37.6669H52.1934V33.6669H48.1934V37.6669ZM52.0732 35.2686V30.2322H44.0732V35.2686H52.0732ZM52.0732 30.2322C52.0732 22.9183 45.6349 17.4785 38.5799 17.4785V25.4785C41.8594 25.4785 44.0732 27.9531 44.0732 30.2322H52.0732ZM38.5799 17.4785C31.525 17.4785 25.0866 22.9183 25.0866 30.2322H33.0866C33.0866 27.9531 35.3004 25.4785 38.5799 25.4785V17.4785ZM25.0866 30.2322V35.2686H33.0866V30.2322H25.0866ZM29.0866 31.2686H26.5631V39.2686H29.0866V31.2686ZM22.5631 35.2686V54.4549H30.5631V35.2686H22.5631ZM26.5631 58.4549H50.5967V50.4549H26.5631V58.4549ZM54.5967 54.4549V35.2686H46.5967V54.4549H54.5967ZM50.5967 31.2686H48.0732V39.2686H50.5967V31.2686ZM35.49 30.2322C35.49 29.3757 36.508 27.8768 38.5799 27.8768V19.8768C32.9611 19.8768 27.49 24.1338 27.49 30.2322H35.49ZM38.5799 27.8768C40.6518 27.8768 41.6698 29.3757 41.6698 30.2322H49.6698C49.6698 24.1338 44.1988 19.8768 38.5799 19.8768V27.8768ZM41.6698 30.2322V35.2686H49.6698V30.2322H41.6698ZM45.6698 31.2686H31.49V39.2686H45.6698V31.2686ZM35.49 35.2686V30.2322H27.49V35.2686H35.49ZM48.1934 48.0566H28.9665V56.0566H48.1934V48.0566ZM32.9665 52.0566V37.6669H24.9665V52.0566H32.9665ZM28.9665 41.6669H48.1934V33.6669H28.9665V41.6669ZM44.1934 37.6669V52.0566H52.1934V37.6669H44.1934Z" fill="white" mask="url(#path-4-inside-2)"/>
</svg>
