<svg width="282" height="29" viewBox="0 0 282 29" fill="none" xmlns="http://www.w3.org/2000/svg">
<g clip-path="url(#clip0)">
<path d="M14.0143 0H0.55305C0.243342 0 0 0.242125 0 0.550285V26.6668C0 26.975 0.243342 27.2171 0.55305 27.2171H14.0143C21.4141 27.052 27.3538 21.0209 27.3538 13.603C27.3538 6.1962 21.403 0.165085 14.0143 0ZM15.3195 23.145C8.66076 24.2345 3.00859 18.5996 4.09257 11.9742C4.75623 7.95712 8.00816 4.72144 12.0344 4.07211C18.7041 2.99355 24.3563 8.61746 23.2723 15.2539C22.6087 19.26 19.3567 22.4956 15.3195 23.145Z" fill="white"/>
<path d="M45.7925 3.96204H49.4537C49.5311 3.96204 49.5975 3.97304 49.6417 4.00606L56.0682 23.1119C56.1014 23.255 56.0571 23.3321 55.9244 23.3321H53.0596C53.0043 23.3321 52.949 23.288 52.9158 23.2L51.6548 19.2599C51.6327 19.2599 51.5664 19.2599 51.4447 19.2599H43.1379C43.0605 19.2599 43.0051 19.2269 42.972 19.1499L41.6889 23.1009C41.6557 23.255 41.6115 23.3321 41.5672 23.3321H39.2555C39.1449 23.3321 39.0896 23.288 39.1117 23.2L45.6377 4.0941C45.6598 4.00606 45.7151 3.96204 45.7925 3.96204ZM43.879 16.9267H50.7368C50.8474 16.9267 50.8806 16.8827 50.8474 16.7837L47.6176 6.71346C47.5623 6.58139 47.4627 6.51536 47.3189 6.51536C47.1751 6.51536 47.0867 6.54837 47.0424 6.62541L43.7684 16.6846C43.7352 16.8497 43.7684 16.9267 43.879 16.9267Z" fill="white"/>
<path d="M61.3774 4.0941V23.2C61.3774 23.288 61.3332 23.3321 61.2447 23.3321H58.8998C58.8113 23.3321 58.756 23.288 58.756 23.2V4.0941C58.756 4.00606 58.8002 3.96204 58.8998 3.96204H61.2447C61.3221 3.96204 61.3774 4.00606 61.3774 4.0941Z" fill="white"/>
<path d="M72.5159 21.1309V23.2C72.5159 23.288 72.4716 23.332 72.3721 23.332H70.2484C67.8371 23.3871 66.6204 22.2975 66.6204 20.0854V11.622C66.6204 11.5339 66.5761 11.4789 66.4876 11.4789H64.0321C63.9436 11.4789 63.8994 11.4349 63.8994 11.3468V9.55292C63.8994 9.46487 63.9436 9.42085 64.0321 9.42085H66.4876C66.5761 9.42085 66.6204 9.37683 66.6204 9.27777V5.55785C66.6204 5.4698 66.6646 5.42578 66.7642 5.42578H69.1091C69.1976 5.42578 69.2418 5.4698 69.2418 5.55785V9.26677C69.2418 9.35481 69.2861 9.40984 69.3745 9.40984H72.361C72.4495 9.40984 72.5048 9.45387 72.5048 9.54191V11.3248C72.5048 11.4129 72.4606 11.4569 72.361 11.4569H69.3745C69.2861 11.4569 69.2418 11.5009 69.2418 11.6V19.6121C69.2418 20.5256 69.7396 20.9878 70.735 20.9878H72.35C72.4606 20.9988 72.5159 21.0429 72.5159 21.1309Z" fill="white"/>
<path d="M78.2344 4.0941V6.9776C78.2344 7.06564 78.1901 7.12067 78.0906 7.12067H75.1926C75.1041 7.12067 75.0599 7.07665 75.0599 6.9776V4.0941C75.0599 4.00606 75.1041 3.96204 75.1926 3.96204H78.0906C78.1901 3.96204 78.2344 4.00606 78.2344 4.0941ZM77.9579 9.55293V23.2C77.9579 23.288 77.9136 23.3321 77.8251 23.3321H75.4581C75.3696 23.3321 75.3253 23.288 75.3253 23.2V9.55293C75.3253 9.46488 75.3696 9.42086 75.4581 9.42086H77.8251C77.9025 9.40985 77.9579 9.45388 77.9579 9.55293Z" fill="white"/>
<path d="M81.8956 9.40985H83.9751C84.0304 9.40985 84.0746 9.45387 84.1078 9.54192L84.3954 10.7856C84.4175 10.8626 84.4728 10.8956 84.5392 10.8956C84.6055 10.8956 84.6609 10.8736 84.7051 10.8186C85.5125 9.69599 86.7182 9.1347 88.322 9.1347C90.2356 9.1347 91.7178 9.74002 92.7686 10.9616C93.8194 12.1833 94.3503 13.7351 94.3503 15.6391V23.2C94.3503 23.288 94.306 23.3321 94.2065 23.3321H91.8616C91.7731 23.3321 91.7288 23.288 91.7288 23.2V15.6391C91.7288 14.4615 91.4412 13.4709 90.855 12.6675C90.2577 11.8751 89.3728 11.4679 88.1893 11.4679C87.0058 11.4679 86.0767 11.8751 85.413 12.6895C84.7493 13.504 84.4175 14.4835 84.4175 15.6281V23.189C84.4175 23.277 84.3733 23.321 84.2848 23.321H81.9177C81.8292 23.321 81.785 23.277 81.785 23.189V9.55292C81.7629 9.45387 81.8071 9.40985 81.8956 9.40985Z" fill="white"/>
<path d="M97.735 9.40984H99.8144C99.8697 9.40984 99.914 9.45386 99.9472 9.5419L100.235 10.7745C100.257 10.8516 100.312 10.8846 100.379 10.8846C100.445 10.8846 100.5 10.8626 100.544 10.8076C101.352 9.68498 102.558 9.12369 104.161 9.12369C106.075 9.12369 107.557 9.729 108.608 10.9506C109.659 12.1723 110.19 13.7241 110.19 15.6281V23.189C110.19 23.277 110.145 23.321 110.046 23.321H107.701C107.612 23.321 107.568 23.277 107.568 23.189V15.6281C107.568 14.4504 107.281 13.4599 106.694 12.6565C106.097 11.8641 105.212 11.4569 104.029 11.4569C102.845 11.4569 101.916 11.8641 101.252 12.6785C100.589 13.4929 100.257 14.4725 100.257 15.617V23.178C100.257 23.266 100.213 23.31 100.124 23.31H97.7571C97.6686 23.31 97.6244 23.266 97.6244 23.178V9.55291C97.6022 9.45386 97.6465 9.40984 97.735 9.40984Z" fill="white"/>
<path d="M132.068 23.2881C131.98 23.2881 131.958 23.233 131.936 23.156L131.659 22.0554C131.604 21.8903 131.471 21.9234 131.382 22.0004C130.641 22.7378 128.816 23.5632 127.434 23.5632C123.396 23.5632 120.852 20.6247 120.852 16.3325C120.852 12.0402 123.396 9.10172 127.434 9.10172C129.369 9.10172 131.051 10.2793 131.382 10.6645C131.515 10.8296 131.659 10.7196 131.659 10.6095V4.06112C131.659 3.97307 131.714 3.92905 131.792 3.92905H134.137C134.214 3.92905 134.269 3.98408 134.269 4.06112V23.156C134.269 23.244 134.214 23.2881 134.137 23.2881H132.068ZM127.699 21.219C130.21 21.219 131.648 19.1829 131.648 16.3215C131.648 13.46 130.21 11.4239 127.699 11.4239C125.045 11.4239 123.474 13.46 123.474 16.3215C123.474 19.1829 125.045 21.219 127.699 21.219Z" fill="white"/>
<path d="M138.296 7.62696C138.218 7.62696 138.163 7.57193 138.163 7.49489V4.72145C138.163 4.64441 138.218 4.58939 138.296 4.58939H141.061C141.149 4.58939 141.194 4.64441 141.194 4.72145V7.49489C141.194 7.58293 141.138 7.62696 141.061 7.62696H138.296ZM141.006 23.145C141.006 23.233 140.95 23.2771 140.873 23.2771H138.528C138.439 23.2771 138.395 23.222 138.395 23.145V9.49792C138.395 9.42088 138.45 9.36586 138.528 9.36586H140.873C140.95 9.36586 141.006 9.42088 141.006 9.49792V23.145Z" fill="white"/>
<path d="M150.927 26.6668C153.825 26.6668 154.854 24.6858 154.854 22.7598V22.0224C154.854 21.9123 154.688 21.8023 154.577 21.9674C154.279 22.3526 152.564 23.5632 150.629 23.5632C146.868 23.5632 144.047 20.6247 144.047 16.3325C144.047 12.0402 146.591 9.10172 150.629 9.10172C152.011 9.10172 153.803 9.87211 154.577 10.6425C154.666 10.7196 154.799 10.7746 154.854 10.6205L155.13 9.51993C155.153 9.44289 155.186 9.38786 155.263 9.38786H157.332C157.409 9.38786 157.464 9.44289 157.464 9.51993V22.7818C157.464 26.4907 154.81 29.022 150.916 29.022C147.52 29.022 144.943 27.129 144.722 24.9279C144.722 24.8399 144.777 24.7958 144.855 24.7958H147.255C147.332 24.7958 147.366 24.8509 147.388 24.9279C147.642 25.5442 148.638 26.6668 150.927 26.6668ZM150.905 21.219C153.416 21.219 154.854 19.1829 154.854 16.3214C154.854 13.46 153.416 11.4239 150.905 11.4239C148.25 11.4239 146.68 13.46 146.68 16.3214C146.669 19.1829 148.25 21.219 150.905 21.219Z" fill="white"/>
<path d="M161.491 7.62696C161.413 7.62696 161.358 7.57193 161.358 7.49489V4.72145C161.358 4.64441 161.413 4.58939 161.491 4.58939H164.256C164.344 4.58939 164.389 4.64441 164.389 4.72145V7.49489C164.389 7.58293 164.333 7.62696 164.256 7.62696H161.491ZM164.2 23.145C164.2 23.233 164.145 23.2771 164.068 23.2771H161.723C161.634 23.2771 161.59 23.222 161.59 23.145V9.49792C161.59 9.42088 161.645 9.36586 161.723 9.36586H164.068C164.145 9.36586 164.2 9.42088 164.2 9.49792V23.145Z" fill="white"/>
<path d="M174.631 23.145C174.631 23.233 174.576 23.277 174.498 23.277H172.375C170.085 23.277 168.758 22.2865 168.758 20.0304V11.556C168.758 11.4789 168.702 11.4239 168.625 11.4239H166.169C166.092 11.4239 166.037 11.3689 166.037 11.2918V9.4979C166.037 9.42086 166.092 9.36584 166.169 9.36584H168.625C168.702 9.36584 168.758 9.31081 168.758 9.23377V5.51384C168.758 5.4258 168.813 5.38177 168.89 5.38177H171.235C171.313 5.38177 171.368 5.4368 171.368 5.51384V9.22276C171.368 9.31081 171.423 9.35483 171.501 9.35483H174.487C174.565 9.35483 174.62 9.40986 174.62 9.4869V11.2698C174.62 11.3579 174.565 11.4019 174.487 11.4019H171.501C171.412 11.4019 171.368 11.4569 171.368 11.534V19.5351C171.368 20.3825 171.755 20.9108 172.861 20.9108H174.487C174.565 20.9108 174.62 20.9658 174.62 21.0429V23.145H174.631Z" fill="white"/>
<path d="M190.968 23.145C190.968 23.233 190.913 23.277 190.835 23.277H190.028C188.457 23.277 187.517 22.8918 187.097 22.0114C187.041 21.8793 186.898 21.9013 186.842 21.9563C186.179 22.6387 184.464 23.5522 181.92 23.5522C178.215 23.5522 176.39 21.7692 176.39 19.1499C176.39 16.7617 178.403 14.9677 182.473 14.9677H185.57C186.179 14.9677 186.477 14.4505 186.477 14.0653C186.477 12.9427 186.201 11.4239 182.916 11.4239C180.538 11.4239 179.465 12.5245 179.465 13.9222C179.465 14.0102 179.409 14.0543 179.332 14.0543H176.976C176.887 14.0543 176.843 13.9992 176.843 13.9222C176.843 10.6755 179.796 9.07968 182.927 9.07968C186.743 9.07968 189.121 10.6975 189.121 14.0543V20.0193C189.121 20.4376 189.453 20.9218 190.028 20.9218H190.835C190.913 20.9218 190.968 20.9768 190.968 21.0539V23.145ZM186.488 17.1799C186.488 17.1028 186.433 17.0478 186.356 17.0478H182.484C179.553 17.0478 179.033 18.2034 179.033 19.1609C179.033 20.1514 179.719 21.219 181.931 21.219C185.272 21.219 186.433 19.2379 186.488 17.5651V17.1799Z" fill="white"/>
<path d="M195.89 23.145C195.89 23.233 195.835 23.277 195.757 23.277H193.413C193.324 23.277 193.28 23.222 193.28 23.145C193.28 16.7947 193.28 10.4114 193.28 4.0501C193.28 3.96205 193.335 3.91803 193.413 3.91803H195.757C195.835 3.91803 195.89 3.97306 195.89 4.0501V23.145Z" fill="white"/>
<path d="M199.905 7.62696C199.828 7.62696 199.773 7.57193 199.773 7.49489V4.72145C199.773 4.64441 199.828 4.58939 199.905 4.58939H202.671C202.759 4.58939 202.803 4.64441 202.803 4.72145V7.49489C202.803 7.58293 202.748 7.62696 202.671 7.62696H199.905ZM202.615 23.145C202.615 23.233 202.56 23.2771 202.483 23.2771H200.138C200.049 23.2771 200.005 23.222 200.005 23.145V9.49792C200.005 9.42088 200.06 9.36586 200.138 9.36586H202.483C202.56 9.36586 202.615 9.42088 202.615 9.49792V23.145Z" fill="white"/>
<path d="M214.948 14.0653C214.86 14.0653 214.816 14.0102 214.816 13.9332C214.816 12.4254 213.599 11.4349 211.365 11.4349C209.296 11.4349 208.378 12.3374 208.378 13.1958C208.378 14.7586 210.369 14.7916 211.752 14.9787C214.517 15.3639 217.835 15.6171 217.835 19.1279C217.835 22.2645 215.214 23.5522 211.752 23.5522C207.548 23.5522 205.502 21.351 205.502 18.7097C205.502 18.6216 205.558 18.5776 205.635 18.5776H207.958C208.046 18.5776 208.124 18.6326 208.124 18.7097C208.124 20.0854 209.528 21.208 211.741 21.208C213.145 21.208 215.192 20.9108 215.192 19.1169C215.192 17.5541 212.902 17.444 211.741 17.3009C209.086 17.0038 205.746 16.5856 205.746 13.1738C205.746 10.9176 207.925 9.07968 211.353 9.07968C214.749 9.07968 217.437 10.6755 217.437 13.9222C217.437 14.0102 217.404 14.0543 217.326 14.0543H214.948V14.0653Z" fill="white"/>
<path d="M222.768 17.2569C222.68 17.2569 222.636 17.3119 222.636 17.389C222.636 19.392 224.096 21.208 226.562 21.208C228.52 21.208 229.493 20.3825 230.069 19.282C230.124 19.1719 230.179 19.1499 230.257 19.1499H232.712C232.801 19.1499 232.878 19.1719 232.845 19.282C232.126 21.9784 229.67 23.5412 226.54 23.5412C222.392 23.5412 219.826 20.6026 219.826 16.3104C219.826 11.9962 222.26 9.07968 226.54 9.07968C230.854 9.07968 233.287 12.0182 233.287 16.3104C233.287 16.5856 233.21 16.8827 233.155 17.1028C233.133 17.1909 233.099 17.2349 233.022 17.2349H222.768V17.2569ZM226.562 11.4239C223.886 11.4239 222.636 13.7571 222.636 15.0558C222.636 15.1328 222.713 15.1878 222.768 15.1878H230.29C230.367 15.1878 230.423 15.1328 230.423 15.0558C230.434 13.493 229.294 11.4239 226.562 11.4239Z" fill="white"/>
<path d="M242.601 11.4239C240.278 11.4239 238.951 13.4269 238.951 15.5731V23.134C238.951 23.222 238.895 23.266 238.818 23.266H236.473C236.384 23.266 236.34 23.211 236.34 23.134V9.49791C236.34 9.42087 236.396 9.36584 236.473 9.36584H238.541C238.619 9.36584 238.652 9.42087 238.674 9.49791L238.951 10.7305C239.006 10.8956 239.172 10.8406 239.249 10.7636C240.189 9.82808 241.207 9.0907 242.59 9.0907H243.994C244.083 9.0907 244.127 9.14573 244.127 9.22277V11.2808C244.127 11.3689 244.072 11.4129 243.994 11.4129H242.601V11.4239Z" fill="white"/>
<path d="M246.361 7.62696C246.284 7.62696 246.229 7.57193 246.229 7.49489V4.72145C246.229 4.64441 246.284 4.58939 246.361 4.58939H249.127C249.215 4.58939 249.26 4.64441 249.26 4.72145V7.49489C249.26 7.58293 249.204 7.62696 249.127 7.62696H246.361ZM249.071 23.145C249.071 23.233 249.016 23.2771 248.939 23.2771H246.594C246.505 23.2771 246.461 23.222 246.461 23.145V9.49792C246.461 9.42088 246.516 9.36586 246.594 9.36586H248.939C249.016 9.36586 249.071 9.42088 249.071 9.49792V23.145Z" fill="white"/>
<path d="M255.376 9.36584C255.454 9.36584 255.487 9.42087 255.509 9.49791L255.785 10.7305C255.808 10.8956 256.029 10.8406 256.084 10.7636C256.637 9.93814 257.854 9.0907 259.701 9.0907C263.705 9.0907 265.729 12.0072 265.729 15.5841V23.145C265.729 23.233 265.674 23.277 265.597 23.277H263.252C263.174 23.277 263.119 23.222 263.119 23.145V15.5841C263.119 13.493 262.179 11.4349 259.447 11.4349C257.124 11.4349 255.797 13.4379 255.797 15.5841V23.145C255.797 23.233 255.741 23.277 255.664 23.277H253.297C253.208 23.277 253.164 23.222 253.164 23.145V9.49791C253.164 9.42087 253.219 9.36584 253.297 9.36584H255.376Z" fill="white"/>
<path d="M275.452 26.6668C278.35 26.6668 279.379 24.6858 279.379 22.7598V22.0224C279.379 21.9123 279.213 21.8023 279.102 21.9674C278.803 22.3526 277.089 23.5632 275.153 23.5632C271.393 23.5632 268.572 20.6247 268.572 16.3325C268.572 12.0402 271.116 9.10172 275.153 9.10172C276.536 9.10172 278.328 9.87211 279.102 10.6425C279.191 10.7196 279.323 10.7746 279.379 10.6205L279.655 9.51993C279.677 9.44289 279.71 9.38786 279.788 9.38786H281.856C281.934 9.38786 281.989 9.44289 281.989 9.51993V22.7818C281.989 26.4907 279.334 29.022 275.441 29.022C272.045 29.022 269.468 27.129 269.247 24.9279C269.247 24.8399 269.302 24.7958 269.379 24.7958H271.78C271.857 24.7958 271.89 24.8509 271.912 24.9279C272.156 25.5442 273.151 26.6668 275.452 26.6668ZM275.419 21.219C277.93 21.219 279.368 19.1829 279.368 16.3214C279.368 13.46 277.93 11.4239 275.419 11.4239C272.764 11.4239 271.193 13.46 271.193 16.3214C271.193 19.1829 272.764 21.219 275.419 21.219Z" fill="white"/>
</g>
<defs>
<clipPath id="clip0">
<rect width="282" height="29" fill="white"/>
</clipPath>
</defs>
</svg>
