<svg width="78" height="78" viewBox="0 0 78 78" fill="none" xmlns="http://www.w3.org/2000/svg">
<circle cx="39" cy="39" r="39" fill="#022F51"/>
<path d="M21.7553 47V32.76H19.1553L16.2553 35.28V38.08L19.1553 35.56V47H21.7553ZM32.3947 42.5V40.08H26.2347V42.5H32.3947ZM43.4103 47V44.66H37.9103L41.8903 40.04C42.8703 38.9 43.4103 38.16 43.4103 36.78C43.4103 34.22 41.6103 32.64 39.0903 32.64C36.6503 32.64 34.7503 34.2 34.7503 36.8H37.3503C37.3503 35.42 38.2303 34.98 39.0903 34.98C40.1903 34.98 40.8103 35.7 40.8103 36.76C40.8103 37.42 40.5903 37.86 40.0703 38.48L34.7503 44.66V47H43.4103ZM51.7697 42.5V40.08H45.6097V42.5H51.7697ZM62.8453 42.88C62.8453 41.16 62.0253 40.18 61.0053 39.64C61.9453 39.14 62.6453 38.26 62.6453 36.72C62.6453 34.32 60.8253 32.64 58.3053 32.64C55.9053 32.64 54.0053 34.16 53.9453 36.7H56.5453C56.6053 35.62 57.3253 34.98 58.3053 34.98C59.2453 34.98 60.0453 35.6 60.0453 36.8C60.0453 37.8 59.5053 38.58 58.2453 38.58H57.8653V40.84H58.2453C59.5253 40.84 60.2453 41.62 60.2453 42.8C60.2453 44.08 59.4453 44.78 58.3253 44.78C57.3053 44.78 56.4253 44.2 56.3853 42.92H53.7853C53.8253 45.9 56.0053 47.12 58.3253 47.12C60.7653 47.12 62.8453 45.72 62.8453 42.88Z" fill="white"/>
</svg>
