<svg id="Flat" height="512" viewBox="0 0 512 512" width="512" xmlns="http://www.w3.org/2000/svg"><path d="m240 440h32v48h-32z" fill="#c3c6c7"/><path d="m216 408h80v32h-80z" fill="#dadcde"/><path d="m260.223 24h-8.446a32 32 0 0 0 -28.622 17.689l-155.777 311.554a32.011 32.011 0 0 0 -3.378 14.311v8.446a32 32 0 0 0 32 32h320a32 32 0 0 0 32-32v-8.446a32.011 32.011 0 0 0 -3.378-14.311l-155.777-311.554a32 32 0 0 0 -28.622-17.689z" fill="#ffb632"/><g fill="#414649"><path d="m416 384h-320a8 8 0 0 1 -8-8v-16a7.994 7.994 0 0 1 .845-3.578l152-304a8 8 0 0 1 7.155-4.422h16a8 8 0 0 1 7.155 4.422l152 304a7.994 7.994 0 0 1 .845 3.578v16a8 8 0 0 1 -8 8zm-312-16h304v-6.111l-148.944-297.889h-6.112l-148.944 297.889z"/><path d="m256 264a16 16 0 0 1 -16-16v-80a16 16 0 0 1 16-16 16 16 0 0 1 16 16v80a16 16 0 0 1 -16 16z"/><circle cx="256" cy="312" r="16"/></g></svg>